<?xml version="1.0" encoding="UTF-8"?>
<svg width="195px" height="38px" viewBox="0 0 195 38" version="1.1" xmlns="http://www.w3.org/2000/svg" xmlns:xlink="http://www.w3.org/1999/xlink">
    <!-- Generator: Sketch 51.2 (57519) - http://www.bohemiancoding.com/sketch -->
    <title>Page 1</title>
    <desc>Created with Sketch.</desc>
    <defs>
        <polygon id="path-1" points="0 0.0566666667 36.0592469 0.0566666667 36.0592469 37.3331988 0 37.3331988"></polygon>
        <polygon id="path-3" points="0 37.9435333 194.784369 37.9435333 194.784369 0.666866667 0 0.666866667"></polygon>
    </defs>
    <g id="landing-page" stroke="none" stroke-width="1" fill="none" fill-rule="evenodd">
        <g id="Desktop---Homelist" transform="translate(-37.000000, -24.000000)">
            <g id="Page-1" transform="translate(37.000000, 24.000000)">
                <g id="Group-3" transform="translate(0.000000, 0.610200)">
                    <mask id="mask-2" fill="white">
                        <use xlink:href="#path-1"></use>
                    </mask>
                    <g id="Clip-2"></g>
                    <path d="M28.2692099,12.9797333 L28.6685273,23.5130667 C28.6685273,24.3804 28.202657,25.1130667 27.4040222,25.3804 L17.5541928,28.9797333 C16.755558,29.2464 15.8903703,28.9797333 15.3579471,28.3804 L8.8357628,20.0470667 C8.30333959,19.3797333 8.30333959,18.4464 8.7692099,17.7797333 L14.6258652,9.0464 C15.0917355,8.31306667 15.9569232,8.0464 16.755558,8.2464 L26.871599,11.1797333 C27.6702338,11.4464 28.2692099,12.1797333 28.2692099,12.9797333 M32.8613601,5.4464 L14.8920768,0.179733333 C13.427913,-0.220266667 11.8306433,0.379733333 11.0320085,1.57973333 L0.583203072,17.1797333 C-0.215431741,18.4464 -0.215431741,20.0470667 0.716308874,21.2464 L12.3630666,36.0470667 C13.2948072,37.1797333 14.8255239,37.6464 16.2231348,37.1130667 L33.7931007,30.7137333 C35.1907116,30.1797333 36.1224522,28.8464 36.0558993,27.3130667 L35.3238174,8.57973333 C35.2572645,7.11306667 34.258971,5.8464 32.8613601,5.4464" id="Fill-1" fill="#FEDC04" mask="url(#mask-2)"></path>
                </g>
                <path d="M46.6378771,8.4568 L50.6310512,6.59013333 L50.6310512,14.6568 C51.429686,13.9901333 52.2283208,13.4568 53.0269556,13.1234667 C53.8255904,12.7901333 54.6242253,12.5901333 55.489413,12.5901333 C57.0866826,12.5901333 58.4842935,13.1234667 59.5491399,14.2568 C60.4808805,15.2568 60.9467509,16.6568 60.9467509,18.5234667 L60.9467509,29.2568 L56.9535768,29.2568 L56.9535768,22.1234667 C56.9535768,20.2568 56.8870239,18.9901333 56.6873652,18.3234667 C56.4877065,17.6568 56.2214949,17.1901333 55.7556246,16.7901333 C55.2897543,16.3901333 54.7573311,16.3234667 54.1583549,16.3234667 C53.3597201,16.3234667 52.6276382,16.5901333 52.0286621,17.1234667 C51.429686,17.6568 51.0303686,18.3901333 50.764157,19.3234667 C50.6310512,19.7901333 50.5644983,20.9234667 50.5644983,22.6568 L50.5644983,29.1901333 L46.5047713,29.1901333 L46.6378771,8.4568 Z" id="Fill-4" fill="#FFFFFF"></path>
                <path d="M70.7967133,16.4568 C69.5322082,16.4568 68.4673618,16.9234667 67.6021741,17.7901333 C66.7369863,18.6568 66.3376689,19.7901333 66.3376689,21.1901333 C66.3376689,22.5901333 66.7369863,23.7901333 67.6021741,24.6568 C68.4008089,25.5234667 69.4656553,25.9901333 70.7967133,25.9901333 C72.0612184,25.9901333 73.1260648,25.5234667 73.9912526,24.6568 C74.8564403,23.7901333 75.2557577,22.5901333 75.2557577,21.2568 C75.2557577,19.8568 74.8564403,18.7234667 73.9912526,17.8568 C73.1260648,16.8568 72.0612184,16.4568 70.7967133,16.4568 M70.7301604,12.5901333 C72.2608771,12.5901333 73.725041,12.9901333 75.056099,13.7234667 C76.387157,14.5234667 77.4520034,15.5234667 78.1840853,16.8568 C78.9161672,18.1901333 79.3154846,19.5901333 79.3154846,21.1234667 C79.3154846,22.6568 78.9161672,24.0568 78.1840853,25.3901333 C77.4520034,26.7234667 76.387157,27.7901333 75.056099,28.5234667 C73.725041,29.2568 72.32743,29.6568 70.7301604,29.6568 C68.4008089,29.6568 66.4042218,28.8568 64.8069522,27.1901333 C63.1431297,25.5234667 62.3444949,23.5234667 62.3444949,21.1234667 C62.3444949,18.5901333 63.2762355,16.4568 65.1397167,14.7901333 C66.7369863,13.3234667 68.6004676,12.5901333 70.7301604,12.5901333" id="Fill-6" fill="#FFFFFF"></path>
                <path d="M80.7796485,12.99 L84.8393754,12.99 L84.8393754,14.8566667 C85.5714573,14.0566667 86.3035392,13.5233333 87.168727,13.1233333 C88.0339147,12.7233333 88.9656553,12.59 89.9639488,12.59 C90.9622423,12.59 91.8939829,12.8566667 92.6926177,13.3233333 C93.4912526,13.8566667 94.1567816,14.59 94.6226519,15.5233333 C95.2881809,14.59 96.0202628,13.8566667 97.0185563,13.3233333 C97.9502969,12.79 98.9485904,12.59 100.07999,12.59 C101.211389,12.59 102.276235,12.8566667 103.141423,13.39 C104.005945,13.9233333 104.671474,14.6566667 105.004239,15.5233333 C105.404222,16.39 105.603881,17.79 105.603881,19.7233333 L105.603881,29.2566667 L101.544154,29.2566667 L101.544154,20.99 C101.544154,19.1233333 101.343829,17.9233333 100.878625,17.2566667 C100.412754,16.59 99.7472253,16.2566667 98.8154846,16.2566667 C98.0834027,16.2566667 97.4844266,16.4566667 96.9520034,16.8566667 C96.4195802,17.2566667 95.9537099,17.79 95.6874983,18.5233333 C95.4212867,19.2566667 95.2881809,20.3233333 95.2881809,21.9233333 L95.2881809,29.2566667 L91.2284539,29.2566667 L91.2284539,21.39 C91.2284539,19.9233333 91.161901,18.9233333 90.8956894,18.2566667 C90.6960307,17.59 90.3632662,17.1233333 89.8973959,16.79 C89.4315256,16.4566667 88.9656553,16.3233333 88.3666792,16.3233333 C87.7011502,16.3233333 87.1021741,16.5233333 86.503198,16.9233333 C85.9707747,17.3233333 85.5049044,17.9233333 85.2386928,18.59 C84.9724812,19.3233333 84.8393754,20.4566667 84.8393754,22.0566667 L84.8393754,29.2566667 L80.7796485,29.2566667 L80.7796485,12.99 Z" id="Fill-8" fill="#FFFFFF"></path>
                <mask id="mask-4" fill="white">
                    <use xlink:href="#path-3"></use>
                </mask>
                <g id="Clip-11"></g>
                <path d="M107.201416,29.2568667 L111.261143,29.2568667 L111.261143,12.9902 L107.201416,12.9902 L107.201416,29.2568667 Z M109.263891,6.32353333 C109.995973,6.32353333 110.594949,6.5902 111.127372,7.12353333 C111.659795,7.65686667 111.926007,8.25686667 111.926007,8.9902 C111.926007,9.72353333 111.659795,10.3235333 111.19459,10.8568667 C110.661502,11.3902 110.063191,11.6568667 109.397662,11.6568667 C108.664915,11.6568667 108.066604,11.3902 107.534181,10.8568667 C107.001092,10.3235333 106.735546,9.72353333 106.735546,8.92353333 C106.735546,8.1902 107.001092,7.5902 107.466962,7.05686667 C107.932833,6.5902 108.532474,6.32353333 109.263891,6.32353333 Z" id="Fill-10" fill="#FFFFFF" mask="url(#mask-4)"></path>
                <path d="M125.370092,19.0567333 C125.103881,18.1900667 124.571457,17.3900667 123.772823,16.8567333 C122.973522,16.3234 122.042447,15.9900667 121.044154,15.9900667 C119.912754,15.9900667 118.914461,16.3234 118.049273,16.9234 C117.51685,17.3234 116.983761,17.9900667 116.518556,19.0567333 L125.370092,19.0567333 Z M129.429819,22.3234 L116.385451,22.3234 C116.585109,23.4567333 117.117532,24.3900667 117.916167,25.0567333 C118.714802,25.7234 119.779648,26.0567333 121.044154,26.0567333 C122.57487,26.0567333 124.30458,25.2567333 125.103881,24.0567333 L128.76429,25.3234 C128.364973,26.3900667 126.434939,28.1900667 125.302874,28.7900667 C124.105587,29.3900667 122.707976,29.6567333 121.044154,29.6567333 C118.515143,29.6567333 116.452003,28.8567333 114.854734,27.2567333 C113.257464,25.6567333 112.458829,23.6567333 112.458829,21.1900667 C112.458829,18.7234 113.257464,16.6567333 114.854734,14.9900667 C116.452003,13.3234 118.44859,12.5234 120.844495,12.5234 C123.440058,12.5234 125.436645,13.3234 127.100468,14.9900667 C128.697737,16.6567333 129.496372,18.7900667 129.496372,21.4567333 L129.429819,22.3234 Z" id="Fill-12" fill="#FFFFFF" mask="url(#mask-4)"></path>
                <path d="M136.284369,27.0567333 C136.284369,27.7900667 136.018823,28.3234 135.552287,28.7900667 C135.086416,29.2567333 134.488106,29.5234 133.822577,29.5234 C133.157048,29.5234 132.557406,29.2567333 132.091536,28.7900667 C131.625666,28.3234 131.360119,27.7234 131.360119,27.0567333 C131.360119,26.3900667 131.625666,25.7900667 132.091536,25.3234 C132.557406,24.8567333 133.157048,24.5900667 133.822577,24.5900667 C134.488106,24.5900667 135.086416,24.8567333 135.552287,25.3234 C136.08471,25.7900667 136.284369,26.3900667 136.284369,27.0567333" id="Fill-13" fill="#FFFFFF" mask="url(#mask-4)"></path>
                <path d="M142.807085,12.5899333 L142.807085,15.5899333 C143.937819,13.4566 145.601642,12.3232667 147.731334,12.3232667 L147.731334,16.7232667 L146.667154,16.7232667 C145.401983,16.7232667 144.403689,17.0566 143.73816,17.7232667 C143.072631,18.3232667 142.739867,19.4566 142.739867,21.0566 L142.739867,29.5232667 L138.413928,29.5232667 L138.413928,12.5232667 L142.807085,12.5899333 Z" id="Fill-14" fill="#FFFFFF" mask="url(#mask-4)"></path>
                <path d="M159.378358,16.99 C158.646276,16.3233333 157.714536,15.99 156.649689,15.99 C155.584843,15.99 154.653102,16.3233333 153.987573,16.99 C153.255491,17.6566667 152.856174,18.59 152.656515,19.6566667 L160.642863,19.6566667 C160.509758,18.5233333 160.111106,17.6566667 159.378358,16.99 M156.516584,29.7233333 C154.054126,29.7233333 152.057539,28.9233333 150.526823,27.3233333 C148.996106,25.7233333 148.197471,23.59 148.197471,20.99 C148.197471,18.39 148.996106,16.2566667 150.526823,14.6566667 C152.057539,13.0566667 154.054126,12.2566667 156.583137,12.2566667 C159.045594,12.2566667 161.109399,13.0566667 162.639451,14.59 C164.23672,16.1233333 165.035355,18.19 165.035355,20.7233333 C165.035355,21.3233333 164.968802,21.8566667 164.902249,22.39 L152.589962,22.39 C152.656515,23.4566667 153.123051,24.39 153.78858,25.0566667 C154.519997,25.7233333 155.385184,26.0566667 156.516584,26.0566667 C157.980747,26.0566667 159.112812,25.4566667 159.778341,24.19 L164.369826,24.19 C163.903956,25.79 162.972215,27.1233333 161.508051,28.1233333 C160.243546,29.19 158.513171,29.7233333 156.516584,29.7233333" id="Fill-15" fill="#FFFFFF" mask="url(#mask-4)"></path>
                <path d="M171.357947,12.5899333 L171.357947,15.1232667 C172.423459,13.2566 174.219722,12.3232667 176.615626,12.3232667 C178.54566,12.3232667 180.14293,12.9232667 181.340882,14.2566 C182.538834,15.5232667 183.204363,17.2566 183.204363,19.5899333 L183.204363,29.5232667 L178.944978,29.5232667 L178.944978,20.1899333 C178.944978,18.8566 178.612213,17.8566 177.946684,17.1899333 C177.281155,16.5232667 176.349415,16.1232667 175.218015,16.1232667 C174.087282,16.1232667 173.154875,16.4566 172.489346,17.1899333 C171.823817,17.9232667 171.491053,18.9232667 171.491053,20.1899333 L171.491053,29.5232667 L167.165114,29.5232667 L167.165114,12.5899333 L171.357947,12.5899333 Z" id="Fill-16" fill="#FFFFFF" mask="url(#mask-4)"></path>
                <path d="M192.721761,25.8568667 L194.784901,25.8568667 L194.784901,29.4562 L192.056232,29.4562 C190.325191,29.4562 188.994133,29.0568667 188.063058,28.2568667 C187.131317,27.4562 186.664782,26.1228667 186.664782,24.3235333 L186.664782,16.1235333 L184.867853,16.1235333 L184.867853,12.5902 L186.664782,12.5902 L186.664782,8.3902 L190.99072,8.3902 L190.99072,12.5902 L194.784901,12.5902 L194.784901,16.1235333 L190.99072,16.1235333 L190.99072,24.3902 C190.99072,24.9235333 191.124491,25.3235333 191.390703,25.5235333 C191.656249,25.7895333 192.122785,25.8568667 192.721761,25.8568667" id="Fill-17" fill="#FFFFFF" mask="url(#mask-4)"></path>
            </g>
        </g>
    </g>
</svg>